<svg width="80" height="80" viewBox="0 0 80 80" fill="none" xmlns="http://www.w3.org/2000/svg">
<path d="M40 24.1V52.7333" stroke="white" stroke-width="1.5" stroke-miterlimit="10"/>
<path d="M33.6333 52.7333H46.3666" stroke="white" stroke-width="1.5" stroke-miterlimit="10"/>
<path d="M33.6333 30.4667H43.1666" stroke="white" stroke-width="1.5" stroke-miterlimit="10"/>
<path d="M40 14.5333V5" stroke="white" stroke-width="1.5" stroke-miterlimit="10"/>
<path d="M40 75V65.4667" stroke="white" stroke-width="1.5" stroke-miterlimit="10"/>
<path d="M65.4667 40H75" stroke="white" stroke-width="1.5" stroke-miterlimit="10"/>
<path d="M5 40H14.5333" stroke="white" stroke-width="1.5" stroke-miterlimit="10"/>
<path d="M75 43.3333V40C74.98 31.7764 72.0677 23.8219 66.7731 17.5295C61.4784 11.2371 54.1389 7.00778 46.0397 5.58223C37.9406 4.15669 29.5981 5.62576 22.4731 9.73219C15.3481 13.8386 9.8948 20.3206 7.0681 28.0432C4.24139 35.7658 4.22148 44.2366 7.01184 51.9724C9.8022 59.7081 15.225 66.2157 22.3306 70.3556C29.4362 74.4955 37.7717 76.0038 45.8774 74.6163C53.9832 73.2289 61.3425 69.0342 66.6667 62.7667" stroke="white" stroke-width="1.5" stroke-miterlimit="10"/>
</svg>
