<svg width="80" height="80" viewBox="0 0 80 80" fill="none" xmlns="http://www.w3.org/2000/svg">
<path d="M40 14.5333V5" stroke="white" stroke-width="1.5" stroke-miterlimit="10"/>
<path d="M40 75V65.4667" stroke="white" stroke-width="1.5" stroke-miterlimit="10"/>
<path d="M65.4667 40H75" stroke="white" stroke-width="1.5" stroke-miterlimit="10"/>
<path d="M5 40H14.5333" stroke="white" stroke-width="1.5" stroke-miterlimit="10"/>
<path d="M75 43.3333V40C74.98 31.7764 72.0677 23.8219 66.7731 17.5295C61.4784 11.2371 54.1389 7.00778 46.0397 5.58223C37.9406 4.15669 29.5981 5.62576 22.4731 9.73219C15.3481 13.8386 9.8948 20.3206 7.0681 28.0432C4.24139 35.7658 4.22148 44.2366 7.01184 51.9724C9.8022 59.7081 15.225 66.2157 22.3306 70.3556C29.4362 74.4955 37.7717 76.0038 45.8774 74.6163C53.9832 73.2289 61.3425 69.0342 66.6667 62.7667" stroke="white" stroke-width="1.5" stroke-miterlimit="10"/>
<path d="M33.6333 33.6333V33.3333C33.6289 32.547 33.78 31.7675 34.0779 31.0398C34.3758 30.312 34.8146 29.6503 35.3691 29.0927C35.9236 28.5351 36.5828 28.0926 37.3089 27.7907C38.035 27.4888 38.8136 27.3333 39.6 27.3333C41.3681 27.3333 43.0638 28.0357 44.314 29.286C45.5643 30.5362 46.2667 32.2319 46.2667 34C46.2718 34.8853 46.1005 35.7628 45.7628 36.5812C45.4252 37.3996 44.9279 38.1425 44.3 38.7667L33.5333 49.5V52.8333H49.4333" stroke="white" stroke-width="1.5" stroke-miterlimit="10"/>
</svg>
