<svg width="80" height="80" viewBox="0 0 80 80" fill="none" xmlns="http://www.w3.org/2000/svg">
<path d="M40 14.5333V5" stroke="white" stroke-width="1.5" stroke-miterlimit="10"/>
<path d="M40 75V65.4667" stroke="white" stroke-width="1.5" stroke-miterlimit="10"/>
<path d="M65.4667 40H75" stroke="white" stroke-width="1.5" stroke-miterlimit="10"/>
<path d="M5 40H14.5333" stroke="white" stroke-width="1.5" stroke-miterlimit="10"/>
<path d="M75 43.3333V40C74.98 31.7764 72.0677 23.8219 66.7731 17.5295C61.4784 11.237 54.1389 7.00774 46.0397 5.5822C37.9406 4.15666 29.5981 5.62573 22.4731 9.73216C15.3481 13.8386 9.8948 20.3206 7.0681 28.0432C4.24139 35.7657 4.22148 44.2366 7.01184 51.9723C9.8022 59.7081 15.225 66.2157 22.3306 70.3556C29.4362 74.4955 37.7717 76.0037 45.8774 74.6163C53.9832 73.2288 61.3425 69.0341 66.6667 62.7667" stroke="white" stroke-width="1.5" stroke-miterlimit="10"/>
<path d="M30.4667 27.2667H40C41.6859 27.2754 43.3002 27.949 44.4922 29.1411C45.6843 30.3332 46.3579 31.9475 46.3667 33.6333C46.3667 34.4694 46.202 35.2973 45.882 36.0697C45.5621 36.8422 45.0931 37.544 44.5019 38.1352C43.9107 38.7264 43.2089 39.1954 42.4364 39.5154C41.664 39.8353 40.8361 40 40 40C41.6886 40 43.3079 40.6708 44.5019 41.8647C45.6959 43.0587 46.3667 44.6781 46.3667 46.3667C46.3579 48.0525 45.6843 49.6668 44.4922 50.8589C43.3002 52.051 41.6859 52.7246 40 52.7333H30.4667" stroke="white" stroke-width="1.5" stroke-miterlimit="10"/>
</svg>
