<svg width="64" height="64" viewBox="0 0 64 64" fill="none" xmlns="http://www.w3.org/2000/svg">
<path d="M25.5 25L24 28.01C22.0369 31.935 19.0841 35.2801 15.433 37.715L15 38L15.5 38.215C19.7513 40.0364 24.4215 40.6539 29 40L32 39H36.838C38.9324 39.0003 41.013 39.3379 43 40V36.4C43 32.8681 42.0401 29.4026 40.223 26.374L39.4 25H25.5Z" fill="#027DE5"/>
<path d="M40.223 26.371L39.4 25H38.086C39.3429 27.6221 39.9969 30.4922 40 33.4C40.0022 33.8073 39.9166 34.2103 39.749 34.5816C39.5815 34.9529 39.3359 35.2837 39.029 35.5516C38.7222 35.8195 38.3612 36.0181 37.9707 36.1339C37.5802 36.2498 37.1693 36.2802 36.766 36.223C35.797 36.0752 34.8182 36.0006 33.838 36H29L26 37C22.9766 37.428 19.9007 37.303 16.922 36.631C16.437 37.008 15.941 37.372 15.428 37.715L15 38L15.5 38.215C19.7513 40.0364 24.4215 40.6539 29 40L32 39H36.838C38.9324 39.0003 41.013 39.3379 43 40V36.4C43.0003 32.8671 42.0404 29.4006 40.223 26.371Z" fill="black"/>
<path d="M35 45H29V39L26 36V27H38V36L35 39V45Z" fill="white"/>
<path d="M47 12L38 21H26L17 12L14 15L26 27V32H38V27L50 15L47 12Z" fill="white"/>
<path d="M47 12L46 13L48 15L36 27V32H38V27L50 15L47 12Z" fill="#CFCFD9"/>
<path d="M32 17C31.2044 17 30.4413 16.6839 29.8787 16.1213C29.3161 15.5587 29 14.7956 29 14V8H35V14C35 14.7956 34.6839 15.5587 34.1213 16.1213C33.5587 16.6839 32.7956 17 32 17Z" fill="#E5E6EB"/>
<path d="M33 8V14C32.9989 14.6186 32.8059 15.2216 32.4477 15.726C32.0895 16.2303 31.5837 16.6112 31 16.816C31.3202 16.9345 31.6586 16.9968 32 17C32.7956 17 33.5587 16.6839 34.1213 16.1213C34.6839 15.5587 35 14.7956 35 14V8H33Z" fill="#D9DAE2"/>
<path d="M37 9H27V3L30 5L32 3L34 5L37 3V9Z" fill="#85B4E0"/>
<path d="M31 9H27V3L30 5L32 3L34 5L37 3C37 4.5913 36.3679 6.11742 35.2426 7.24264C34.1174 8.36786 32.5913 9 31 9Z" fill="#94C7F2"/>
<path d="M56 25H54V27H56V25Z" fill="#CCEAFF"/>
<path d="M58 23H56V25H58V23Z" fill="#CCEAFF"/>
<path d="M60 25H58V27H60V25Z" fill="#CCEAFF"/>
<path d="M58 27H56V29H58V27Z" fill="#CCEAFF"/>
<path d="M6 21H4V23H6V21Z" fill="#CCEAFF"/>
<path d="M8 19H6V21H8V19Z" fill="#CCEAFF"/>
<path d="M10 21H8V23H10V21Z" fill="#CCEAFF"/>
<path d="M8 23H6V25H8V23Z" fill="#CCEAFF"/>
<path d="M9 5H7V7H9V5Z" fill="#CCEAFF"/>
<path d="M11 3H9V5H11V3Z" fill="#CCEAFF"/>
<path d="M13 5H11V7H13V5Z" fill="#CCEAFF"/>
<path d="M11 7H9V9H11V7Z" fill="#CCEAFF"/>
<path d="M55 6H53V8H55V6Z" fill="#CCEAFF"/>
<path d="M57 4H55V6H57V4Z" fill="#CCEAFF"/>
<path d="M59 6H57V8H59V6Z" fill="#CCEAFF"/>
<path d="M57 8H55V10H57V8Z" fill="#CCEAFF"/>
<path d="M38 53V45H26V53H16V61H48V53H38Z" fill="#E5E6EB"/>
<path d="M38 45H36V53H38V45Z" fill="#CFCFD9"/>
<path d="M46 53V59H16V61H48V53H46Z" fill="#CFCFD9"/>
<path d="M33 49H31V55H33V49Z" fill="#444444"/>
<path d="M26 49V45H30L26 49Z" fill="white"/>
<path d="M32 29C32.5523 29 33 28.5523 33 28C33 27.4477 32.5523 27 32 27C31.4477 27 31 27.4477 31 28C31 28.5523 31.4477 29 32 29Z" fill="white"/>
<path d="M36 21L32 25L28 21H36Z" fill="black"/>
<path d="M33 49H31V55H33V49Z" fill="black"/>
<path d="M32 18C33.0609 18 34.0783 17.5786 34.8284 16.8284C35.5786 16.0783 36 15.0609 36 14V9H34V14C34 14.5304 33.7893 15.0391 33.4142 15.4142C33.0391 15.7893 32.5304 16 32 16C31.4696 16 30.9609 15.7893 30.5858 15.4142C30.2107 15.0391 30 14.5304 30 14V9H28V14C28 15.0609 28.4214 16.0783 29.1716 16.8284C29.9217 17.5786 30.9391 18 32 18Z" fill="black"/>
<path d="M56 25H54V27H56V25Z" fill="white"/>
<path d="M58 23H56V25H58V23Z" fill="white"/>
<path d="M60 25H58V27H60V25Z" fill="white"/>
<path d="M58 27H56V29H58V27Z" fill="white"/>
<path d="M6 21H4V23H6V21Z" fill="white"/>
<path d="M8 19H6V21H8V19Z" fill="white"/>
<path d="M10 21H8V23H10V21Z" fill="white"/>
<path d="M8 23H6V25H8V23Z" fill="white"/>
<path d="M9 5H7V7H9V5Z" fill="white"/>
<path d="M11 3H9V5H11V3Z" fill="white"/>
<path d="M13 5H11V7H13V5Z" fill="white"/>
<path d="M11 7H9V9H11V7Z" fill="white"/>
<path d="M55 6H53V8H55V6Z" fill="white"/>
<path d="M57 4H55V6H57V4Z" fill="white"/>
<path d="M59 6H57V8H59V6Z" fill="white"/>
<path d="M57 8H55V10H57V8Z" fill="white"/>
<path d="M47.707 11.293C47.5195 11.1056 47.2652 11.0002 47 11.0002C46.7349 11.0002 46.4806 11.1056 46.293 11.293L37.293 20.293C37.1055 20.4805 37.0001 20.7348 37 21V31H27V21C27 20.7348 26.8946 20.4805 26.707 20.293L17.707 11.293C17.5195 11.1056 17.2652 11.0002 17 11.0002C16.7349 11.0002 16.4806 11.1056 16.293 11.293L13.293 14.293C13.1056 14.4806 13.0002 14.7349 13.0002 15C13.0002 15.2652 13.1056 15.5195 13.293 15.707L25 27.414V36C25.0001 36.2652 25.1055 36.5195 25.293 36.707L28 39.414V44H26C25.7348 44 25.4805 44.1054 25.2929 44.2929C25.1054 44.4805 25 44.7348 25 45V52H16C15.7348 52 15.4805 52.1054 15.2929 52.2929C15.1054 52.4805 15 52.7348 15 53V61C15 61.2652 15.1054 61.5196 15.2929 61.7071C15.4805 61.8947 15.7348 62 16 62H48C48.2652 62 48.5196 61.8947 48.7071 61.7071C48.8947 61.5196 49 61.2652 49 61V53C49 52.7348 48.8947 52.4805 48.7071 52.2929C48.5196 52.1054 48.2652 52 48 52H39V45C39 44.7348 38.8947 44.4805 38.7071 44.2929C38.5196 44.1054 38.2652 44 38 44H36V39.414L38.707 36.707C38.8946 36.5195 39 36.2652 39 36V27.414L50.707 15.707C50.8945 15.5195 50.9998 15.2652 50.9998 15C50.9998 14.7349 50.8945 14.4806 50.707 14.293L47.707 11.293ZM15.414 15L17 13.414L25 21.414V24.586L15.414 15ZM38 54H47V60H17V54H26C26.2652 54 26.5196 53.8947 26.7071 53.7071C26.8947 53.5196 27 53.2652 27 53V46H37V53C37 53.2652 37.1054 53.5196 37.2929 53.7071C37.4805 53.8947 37.7348 54 38 54ZM34.293 38.293C34.1055 38.4805 34.0001 38.7348 34 39V44H30V39C30 38.7348 29.8946 38.4805 29.707 38.293L27 35.586V33H37V35.586L34.293 38.293ZM39 24.586V21.414L47 13.414L48.586 15L39 24.586Z" fill="black"/>
</svg>
