<svg width="120" height="120" viewBox="0 0 120 120" fill="none" xmlns="http://www.w3.org/2000/svg">
<path d="M7.5 26.5V74.2C7.5 79.2656 9.51232 84.1238 13.0943 87.7057C16.6762 91.2877 21.5344 93.3 26.6 93.3H36.15V107.6L65 93.3H93.65C98.7156 93.3 103.574 91.2877 107.156 87.7057C110.738 84.1238 112.75 79.2656 112.75 74.2V26.5C112.75 21.4344 110.738 16.5762 107.156 12.9943C103.574 9.41231 98.7156 7.39999 93.65 7.39999H26.6C21.5344 7.39999 16.6762 9.41231 13.0943 12.9943C9.51232 16.5762 7.5 21.4344 7.5 26.5Z" stroke="white" stroke-width="1.5" stroke-miterlimit="10"/>
<path d="M60 60V54.3C59.998 53.0458 60.2444 51.8035 60.7249 50.645C61.2055 49.4865 61.9108 48.4346 62.8 47.55L66.75 43.6C68.5366 41.8071 69.543 39.3811 69.5499 36.85V36C69.5367 33.4759 68.5247 31.0596 66.7352 29.2794C64.9457 27.4993 62.5241 26.5 60 26.5C57.4758 26.5 55.0542 27.4993 53.2647 29.2794C51.4752 31.0596 50.4632 33.4759 50.45 36" stroke="white" stroke-width="1.5" stroke-miterlimit="10"/>
<path d="M55.25 69.45H64.75" stroke="white" stroke-width="1.5" stroke-miterlimit="10"/>
</svg>
