<svg width="60" height="60" viewBox="0 0 60 60" fill="none" xmlns="http://www.w3.org/2000/svg">
<g clip-path="url(#clip0_106_4)">
<path d="M56.08 22.5799L44.41 10.9099C43.8492 10.3603 43.0953 10.0524 42.31 10.0524C41.5248 10.0524 40.7708 10.3603 40.21 10.9099L38.58 12.5399C38.056 13.0766 37.752 13.79 37.7279 14.5397C37.7039 15.2893 37.9615 16.0208 38.45 16.5899C37.73 17.1946 36.8931 17.6443 35.9915 17.9109C35.0899 18.1776 34.1431 18.2556 33.21 18.1399C31.4638 17.9306 29.6949 18.2475 28.13 19.0499H28.06L24.06 18.5399C23.6125 18.4851 23.1967 18.2807 22.88 17.9599L21.55 16.6299C22.0469 16.062 22.3115 15.3277 22.2911 14.5734C22.2708 13.8191 21.9669 13.1002 21.44 12.5599L19.81 10.9299C19.2492 10.3803 18.4953 10.0724 17.71 10.0724C16.9248 10.0724 16.1708 10.3803 15.61 10.9299L3.92001 22.5799C3.37033 23.1407 3.06244 23.8947 3.06244 24.6799C3.06244 25.4652 3.37033 26.2192 3.92001 26.7799L5.55001 28.4099C6.09024 28.9368 6.80917 29.2407 7.56349 29.2611C8.31781 29.2815 9.05211 29.0168 9.62001 28.5199L12.18 31.0699C12.5696 31.4698 12.8516 31.9617 13 32.4999C13.5277 34.4572 14.5625 36.2406 16 37.6699C15.7308 38.1758 15.597 38.7427 15.6118 39.3155C15.6266 39.8884 15.7893 40.4476 16.0843 40.9389C16.3793 41.4302 16.7964 41.8368 17.2951 42.1191C17.7937 42.4014 18.357 42.5498 18.93 42.5499C18.9274 42.988 19.0117 43.4222 19.1781 43.8274C19.3445 44.2326 19.5897 44.6008 19.8994 44.9105C20.2092 45.2203 20.5773 45.4655 20.9825 45.6319C21.3878 45.7983 21.822 45.8826 22.26 45.8799C22.2695 46.7676 22.6289 47.6157 23.26 48.2399C23.763 48.7441 24.4155 49.0721 25.1203 49.1748C25.825 49.2776 26.544 49.1496 27.17 48.8099L27.35 48.9899C27.7428 49.3858 28.2293 49.6759 28.7643 49.8335C29.2992 49.9911 29.8653 50.0109 30.41 49.8912C30.9546 49.7715 31.4602 49.5161 31.8798 49.1488C32.2994 48.7814 32.6194 48.314 32.81 47.7899L33.22 48.1999C33.5286 48.5105 33.8955 48.7569 34.2997 48.925C34.7038 49.0932 35.1373 49.1798 35.575 49.1798C36.0128 49.1798 36.4462 49.0932 36.8504 48.925C37.2545 48.7569 37.6215 48.5105 37.93 48.1999C38.2606 47.86 38.5101 47.4498 38.66 46.9999L39.15 47.4899C39.7746 48.1145 40.6217 48.4654 41.505 48.4654C42.3883 48.4654 43.2354 48.1145 43.86 47.4899C44.4846 46.8654 44.8355 46.0182 44.8355 45.1349C44.8355 44.2516 44.4846 43.4045 43.86 42.7799L43.37 42.2899C43.8191 42.1299 44.226 41.8701 44.56 41.5299C44.8745 41.2243 45.1249 40.8591 45.2966 40.4556C45.4683 40.0521 45.5578 39.6184 45.56 39.1799C45.5576 38.6533 45.4272 38.135 45.18 37.6699L45.37 37.4699C46.6694 36.1833 47.5511 34.535 47.9 32.7399C48.1737 31.3199 48.8709 30.016 49.9 28.9999L50.41 28.4899C50.9779 28.9868 51.7122 29.2515 52.4665 29.2311C53.2208 29.2107 53.9398 28.9068 54.48 28.3799L56.11 26.7499C56.6467 26.1867 56.9436 25.4369 56.938 24.6589C56.9324 23.8809 56.6248 23.1354 56.08 22.5799ZM6.93001 26.9999L5.30001 25.4099C5.11376 25.2226 5.00922 24.9691 5.00922 24.7049C5.00922 24.4408 5.11376 24.1873 5.30001 23.9999L17 12.2899C17.0934 12.1916 17.2059 12.1133 17.3305 12.0598C17.4552 12.0063 17.5894 11.9787 17.725 11.9787C17.8606 11.9787 17.9949 12.0063 18.1195 12.0598C18.2441 12.1133 18.3566 12.1916 18.45 12.2899L20 13.9199C20.0983 14.0134 20.1767 14.1258 20.2302 14.2504C20.2837 14.3751 20.3113 14.5093 20.3113 14.6449C20.3113 14.7806 20.2837 14.9148 20.2302 15.0394C20.1767 15.1641 20.0983 15.2765 20 15.3699L8.38001 26.9999C8.28659 27.0983 8.17414 27.1766 8.0495 27.2301C7.92487 27.2836 7.79065 27.3112 7.65501 27.3112C7.51937 27.3112 7.38515 27.2836 7.26052 27.2301C7.13588 27.1766 7.02343 27.0983 6.93001 26.9999ZM18 40.2199C17.8657 40.0903 17.7589 39.9349 17.686 39.7631C17.6131 39.5913 17.5755 39.4066 17.5755 39.2199C17.5755 39.0333 17.6131 38.8486 17.686 38.6767C17.7589 38.5049 17.8657 38.3496 18 38.2199C18.26 37.9641 18.6102 37.8206 18.975 37.8206C19.3398 37.8206 19.69 37.9641 19.95 38.2199C20.0813 38.348 20.1861 38.5006 20.2585 38.6692C20.3308 38.8377 20.3692 39.0189 20.3715 39.2023C20.3739 39.3857 20.34 39.5677 20.272 39.738C20.204 39.9084 20.103 40.0636 19.975 40.1949C19.847 40.3263 19.6943 40.4311 19.5258 40.5034C19.3572 40.5757 19.1761 40.6142 18.9927 40.6165C18.8093 40.6188 18.6272 40.585 18.4569 40.5169C18.2866 40.4489 18.1313 40.348 18 40.2199ZM21.33 43.5499C21.134 43.3557 21.0007 43.1072 20.9474 42.8365C20.894 42.5658 20.923 42.2853 21.0307 42.0312C21.1383 41.7772 21.3197 41.5612 21.5513 41.4113C21.7829 41.2613 22.0541 41.1842 22.33 41.1899C22.5152 41.1844 22.6996 41.2171 22.8716 41.2859C23.0437 41.3547 23.1997 41.4582 23.33 41.5899C23.463 41.7203 23.5687 41.8759 23.6409 42.0476C23.713 42.2193 23.7502 42.4037 23.7502 42.5899C23.7502 42.7762 23.713 42.9606 23.6409 43.1323C23.5687 43.304 23.463 43.4596 23.33 43.5899C23.1955 43.7269 23.0345 43.835 22.8567 43.9075C22.679 43.9801 22.4883 44.0156 22.2964 44.0118C22.1045 44.0081 21.9153 43.9652 21.7405 43.8858C21.5658 43.8063 21.4091 43.6921 21.28 43.5499H21.33ZM24.66 46.8799C24.5245 46.751 24.4165 46.5959 24.3428 46.424C24.269 46.2521 24.231 46.067 24.231 45.8799C24.231 45.6929 24.269 45.5078 24.3428 45.3359C24.4165 45.164 24.5245 45.0088 24.66 44.8799C24.9273 44.6195 25.2869 44.4757 25.66 44.4799C25.8854 44.4846 26.1062 44.5445 26.3032 44.6542C26.5001 44.764 26.6672 44.9204 26.7897 45.1096C26.9122 45.2989 26.9865 45.5153 27.0061 45.7399C27.0257 45.9645 26.9899 46.1905 26.9019 46.398C26.814 46.6056 26.6765 46.7885 26.5015 46.9307C26.3265 47.0729 26.1194 47.17 25.8982 47.2136C25.677 47.2572 25.4485 47.2459 25.2326 47.1808C25.0168 47.1157 24.8202 46.9986 24.66 46.8399V46.8799ZM43.24 40.1899C42.9728 40.4514 42.6138 40.5977 42.24 40.5977C41.8662 40.5977 41.5072 40.4514 41.24 40.1899L31.09 29.9999C31.0098 29.8733 30.9021 29.7664 30.7749 29.687C30.6478 29.6077 30.5044 29.5579 30.3554 29.5414C30.2064 29.5249 30.0556 29.5421 29.9142 29.5918C29.7728 29.6414 29.6443 29.7222 29.5383 29.8282C29.4323 29.9342 29.3515 30.0627 29.3019 30.2041C29.2522 30.3456 29.235 30.4963 29.2515 30.6453C29.268 30.7943 29.3177 30.9377 29.3971 31.0648C29.4765 31.192 29.5834 31.2997 29.71 31.3799L42.48 44.1899C42.6117 44.3208 42.7158 44.4767 42.7862 44.6485C42.8566 44.8202 42.8919 45.0043 42.89 45.1899C42.8936 45.3758 42.8591 45.5604 42.7886 45.7324C42.7181 45.9044 42.6131 46.0601 42.48 46.1899C42.22 46.4458 41.8698 46.5892 41.505 46.5892C41.1402 46.5892 40.79 46.4458 40.53 46.1899L27.76 33.3699C27.5681 33.2483 27.3405 33.1956 27.1146 33.2206C26.8888 33.2456 26.6782 33.3468 26.5175 33.5074C26.3568 33.6681 26.2557 33.8787 26.2307 34.1046C26.2057 34.3304 26.2584 34.558 26.38 34.7499L36.53 44.8899C36.7952 45.1552 36.9442 45.5149 36.9442 45.8899C36.9442 46.265 36.7952 46.6247 36.53 46.8899C36.2648 47.1552 35.9051 47.3042 35.53 47.3042C35.1549 47.3042 34.7952 47.1552 34.53 46.8899L24.43 36.6999C24.2381 36.5783 24.0105 36.5256 23.7846 36.5506C23.5588 36.5756 23.3482 36.6768 23.1875 36.8374C23.0268 36.9981 22.9257 37.2087 22.9007 37.4346C22.8757 37.6604 22.9284 37.888 23.05 38.0799L30.65 45.6799C30.7813 45.8113 30.8855 45.9672 30.9566 46.1387C31.0276 46.3103 31.0642 46.4942 31.0642 46.6799C31.0642 46.8657 31.0276 47.0496 30.9566 47.2211C30.8855 47.3927 30.7813 47.5486 30.65 47.6799C30.5187 47.8113 30.3628 47.9154 30.1912 47.9865C30.0196 48.0576 29.8357 48.0942 29.65 48.0942C29.4643 48.0942 29.2804 48.0576 29.1088 47.9865C28.9372 47.9154 28.7813 47.8113 28.65 47.6799L28.47 47.4999C28.743 46.9952 28.8797 46.428 28.8666 45.8543C28.8535 45.2806 28.691 44.7203 28.3951 44.2286C28.0993 43.7369 27.6804 43.3308 27.1797 43.0505C26.679 42.7701 26.1138 42.6252 25.54 42.6299C25.5455 42.1925 25.4629 41.7585 25.2971 41.3537C25.1313 40.9488 24.8857 40.5815 24.575 40.2736C24.2643 39.9657 23.8947 39.7234 23.4884 39.5613C23.0821 39.3992 22.6474 39.3205 22.21 39.3299C22.2242 38.7513 22.0864 38.1791 21.8104 37.6703C21.5344 37.1616 21.1299 36.7341 20.6371 36.4305C20.1443 36.127 19.5805 35.9579 19.002 35.9403C18.4234 35.9226 17.8504 36.057 17.34 36.3299C16.1519 35.1293 15.3031 33.6353 14.88 31.9999C14.6522 31.1274 14.1927 30.3326 13.55 29.6999L11 27.1599L20.16 17.9999L21.48 19.3199C22.1046 19.9406 22.9166 20.3378 23.79 20.4499L25.85 20.7099L20.93 25.6299C20.5616 25.9732 20.2661 26.3873 20.0611 26.8472C19.8561 27.3072 19.7459 27.8038 19.7371 28.3073C19.7282 28.8108 19.8208 29.311 20.0094 29.7779C20.198 30.2449 20.4787 30.669 20.8348 31.0251C21.1909 31.3812 21.6151 31.6619 22.082 31.8506C22.549 32.0392 23.0491 32.1318 23.5526 32.1229C24.0561 32.114 24.5527 32.0038 25.0127 31.7988C25.4727 31.5939 25.8867 31.2984 26.23 30.9299L29.54 27.6199C29.8366 27.3298 30.1945 27.11 30.5874 26.9767C30.9803 26.8434 31.3981 26.8001 31.81 26.8499L43.19 38.2299C43.3203 38.3613 43.4229 38.5175 43.4916 38.6893C43.5603 38.8611 43.5938 39.045 43.59 39.2299C43.5859 39.5896 43.4425 39.9338 43.19 40.1899H43.24ZM46 32.3899C45.7199 33.8077 45.0236 35.1098 44 36.1299L43.93 36.1999L36.2 28.4899C37.1807 28.7443 38.1872 28.8852 39.2 28.9099C39.3296 28.9198 39.4598 28.9023 39.5822 28.8587C39.7047 28.8151 39.8166 28.7464 39.9108 28.6568C40.005 28.5673 40.0795 28.4591 40.1293 28.339C40.1791 28.219 40.2032 28.0899 40.2 27.9599C40.2 27.6947 40.0947 27.4404 39.9071 27.2528C39.7196 27.0653 39.4652 26.9599 39.2 26.9599C37.3039 26.909 35.448 26.4013 33.79 25.4799C32.8913 24.9737 31.8524 24.7731 30.8298 24.9084C29.8072 25.0437 28.8562 25.5075 28.12 26.2299L24.81 29.5399C24.6536 29.745 24.455 29.914 24.2276 30.0356C24.0002 30.1572 23.7494 30.2285 23.492 30.2447C23.2347 30.2609 22.9768 30.2216 22.736 30.1295C22.4951 30.0374 22.2769 29.8947 22.096 29.7109C21.9151 29.5271 21.7759 29.3066 21.6876 29.0643C21.5993 28.8221 21.5642 28.5636 21.5844 28.3066C21.6047 28.0495 21.68 27.7998 21.8052 27.5744C21.9304 27.349 22.1025 27.1531 22.31 26.9999L27.31 21.9999C28.0498 21.2676 28.9466 20.7132 29.9325 20.3789C30.9183 20.0445 31.9673 19.9388 33 20.0699C34.2167 20.2194 35.4513 20.1125 36.6242 19.756C37.7971 19.3994 38.8823 18.8013 39.81 17.9999L49 27.1599L48.5 27.6499C47.2123 28.945 46.3416 30.5958 46 32.3899ZM54.73 25.3899L53.07 26.9999C52.9766 27.0983 52.8641 27.1766 52.7395 27.2301C52.6149 27.2836 52.4807 27.3112 52.345 27.3112C52.2094 27.3112 52.0752 27.2836 51.9505 27.2301C51.8259 27.1766 51.7134 27.0983 51.62 26.9999L40 15.3699C39.9017 15.2765 39.8234 15.1641 39.7699 15.0394C39.7164 14.9148 39.6888 14.7806 39.6888 14.6449C39.6888 14.5093 39.7164 14.3751 39.7699 14.2504C39.8234 14.1258 39.9017 14.0134 40 13.9199L41.63 12.2899C41.7234 12.1916 41.8359 12.1133 41.9605 12.0598C42.0852 12.0063 42.2194 11.9787 42.355 11.9787C42.4906 11.9787 42.6249 12.0063 42.7495 12.0598C42.8741 12.1133 42.9866 12.1916 43.08 12.2899L54.7 23.9999C54.8863 24.1873 54.9908 24.4408 54.9908 24.7049C54.9908 24.9691 54.8863 25.2226 54.7 25.4099L54.73 25.3899Z" fill="white"/>
</g>
<defs>
<clipPath id="clip0_106_4">
<rect width="60" height="60" fill="white"/>
</clipPath>
</defs>
</svg>
